<?xml version="1.0" encoding="utf-8"?>
<!-- Generator: Adobe Illustrator 16.0.0, SVG Export Plug-In . SVG Version: 6.00 Build 0)  -->
<!DOCTYPE svg PUBLIC "-//W3C//DTD SVG 1.1//EN" "http://www.w3.org/Graphics/SVG/1.1/DTD/svg11.dtd">
<svg version="1.1" id="Layer_1" xmlns="http://www.w3.org/2000/svg" xmlns:xlink="http://www.w3.org/1999/xlink" x="0px" y="0px"
	 width="24px" height="24px" viewBox="0 0 24 24" enable-background="new 0 0 24 24" xml:space="preserve">
<g id="Shape_15">
	<g>
		<path fill="none" stroke="#FFFFFF" stroke-miterlimit="10" d="M22.095,6.219c-0.152-1.117-0.618-2.097-1.296-2.989
			c-0.15-0.198-0.316-0.277-0.563-0.277c-4.913,0.005-9.827,0.004-14.741,0.004c-0.057,0-0.115-0.004-0.171,0.002
			C4.998,2.992,4.832,3.333,5.006,3.61C5.05,3.68,5.104,3.743,5.154,3.809c0.95,1.27,1.27,2.688,1.022,4.247
			c-0.152,0.96-0.463,1.872-0.837,2.764c-0.525,1.252-1.081,2.491-1.595,3.748c-0.41,1.003-0.689,2.046-0.743,3.137
			c-0.076,1.539,0.411,2.896,1.342,4.111c0.151,0.197,0.318,0.277,0.563,0.276c2.461-0.006,4.921-0.004,7.381-0.004h7.075
			c0.152,0,0.306,0.007,0.457-0.003c0.256-0.017,0.41-0.209,0.349-0.459c-0.028-0.118-0.102-0.23-0.176-0.33
			c-0.526-0.71-0.901-1.484-1.055-2.36c-0.171-0.985-0.049-1.948,0.216-2.901c0.311-1.117,0.787-2.17,1.257-3.226
			c0.508-1.142,1.032-2.277,1.38-3.483C22.083,8.31,22.238,7.277,22.095,6.219z M21.212,8.354c-0.26,1.26-0.786,2.422-1.289,3.594
			c-0.476,1.107-0.955,2.215-1.376,3.344c-0.363,0.975-0.538,1.995-0.489,3.046c0.045,0.979,0.327,1.884,0.817,2.728
			c0.034,0.059,0.066,0.117,0.114,0.203h-0.211c-4.539,0-9.077-0.001-13.616,0.004c-0.179,0.001-0.284-0.051-0.387-0.2
			c-0.899-1.316-1.144-2.758-0.845-4.308c0.225-1.169,0.683-2.256,1.147-3.343c0.52-1.219,1.05-2.436,1.519-3.675
			c0.363-0.961,0.532-1.971,0.49-3.008C7.046,5.752,6.767,4.841,6.273,3.99C6.241,3.936,6.21,3.881,6.179,3.825
			c-0.002-0.005,0-0.012,0-0.049h1.014c4.271,0,8.543,0.001,12.814-0.003c0.155,0,0.251,0.041,0.344,0.172
			C21.298,5.287,21.539,6.763,21.212,8.354z M8.434,11.131h9.781v-0.798H8.434V11.131z M6.929,14.704h9.781v-0.791H6.929V14.704z
			 M9.327,7.588h9.787V6.802H9.327V7.588z M6.031,18.25h9.776v-0.792H6.031V18.25z"/>
	</g>
</g>
<g>
</g>
<g>
</g>
<g>
</g>
<g>
</g>
<g>
</g>
<g>
</g>
<g>
</g>
<g>
</g>
<g>
</g>
<g>
</g>
<g>
</g>
<g>
</g>
<g>
</g>
<g>
</g>
<g>
</g>
</svg>
