<?xml version="1.0" encoding="utf-8"?>
<!-- Generator: Adobe Illustrator 16.0.0, SVG Export Plug-In . SVG Version: 6.00 Build 0)  -->
<!DOCTYPE svg PUBLIC "-//W3C//DTD SVG 1.1//EN" "http://www.w3.org/Graphics/SVG/1.1/DTD/svg11.dtd">
<svg version="1.1" id="Layer_1" xmlns="http://www.w3.org/2000/svg" xmlns:xlink="http://www.w3.org/1999/xlink" x="0px" y="0px"
	 width="24px" height="24px" viewBox="0 0 24 24" enable-background="new 0 0 24 24" xml:space="preserve">
<g id="Shape_5">
	<g>
		<path fill-rule="evenodd" clip-rule="evenodd" fill="#FFFFFF" d="M21.869,19.073c-0.01-0.128-0.032-0.255-0.053-0.383
			c-0.238-1.485-0.979-2.66-2.197-3.534c-0.11-0.079-0.146-0.16-0.146-0.289c0.005-0.938,0.013-1.877,0-2.814
			c-0.011-0.772,0.033-1.557-0.091-2.313c-0.453-2.745-2.012-4.636-4.587-5.687c-0.103-0.042-0.141-0.09-0.155-0.204
			c-0.131-1.052-0.699-1.756-1.706-2.099c-0.116-0.039-0.235-0.066-0.354-0.1c-0.207,0-0.414,0-0.621,0
			c-0.024,0.011-0.049,0.027-0.074,0.032c-1.143,0.215-1.909,1.029-2.026,2.17C9.847,3.972,9.796,4.01,9.701,4.055
			c-0.423,0.2-0.865,0.372-1.256,0.624C6.364,6.017,5.184,7.922,5.052,10.4c-0.078,1.479-0.027,2.965-0.028,4.448
			c0,0.146-0.04,0.235-0.162,0.322c-1.107,0.79-1.818,1.851-2.113,3.178c-0.081,0.361-0.106,0.734-0.159,1.111
			c6.464,0,12.873,0,19.282,0C21.871,19.318,21.878,19.195,21.869,19.073z M3.688,18.497c0.076-0.229,0.134-0.439,0.216-0.642
			c0.371-0.904,0.986-1.604,1.824-2.102c0.202-0.12,0.271-0.256,0.27-0.492c-0.012-1.455-0.007-2.911-0.005-4.366
			c0.003-2.79,1.638-5.094,4.271-6.022c0.527-0.187,0.527-0.187,0.544-0.757c0.022-0.8,0.496-1.369,1.23-1.481
			c0.85-0.131,1.592,0.481,1.653,1.363c0.005,0.076,0.004,0.152,0.006,0.228c0.009,0.459,0.008,0.46,0.449,0.614
			c2.157,0.752,3.564,2.221,4.161,4.427c0.14,0.519,0.184,1.075,0.193,1.615c0.024,1.496,0.01,2.993,0.004,4.49
			c0,0.149,0.043,0.238,0.172,0.315c0.938,0.559,1.63,1.327,1.995,2.369c0.038,0.11,0.07,0.223,0.104,0.335
			c0.007,0.025,0.005,0.054,0.01,0.105C15.087,18.497,9.406,18.497,3.688,18.497z M12.318,21.883
			c-0.325,0.019-0.627-0.071-0.896-0.26c-0.405-0.285-0.591-0.691-0.629-1.166c-0.326,0-0.633,0-0.938,0
			c-0.053,1.022,0.73,2.036,1.771,2.309c0.098,0.026,0.195,0.056,0.293,0.083c0.207,0,0.414,0,0.621,0
			c0.039-0.013,0.077-0.029,0.117-0.037c1.007-0.207,1.65-0.808,1.927-1.795c0.051-0.179,0.056-0.371,0.082-0.561
			c-0.349,0-0.655,0-0.96,0C13.63,21.374,12.976,21.848,12.318,21.883z"/>
	</g>
</g>
<g>
</g>
<g>
</g>
<g>
</g>
<g>
</g>
<g>
</g>
<g>
</g>
<g>
</g>
<g>
</g>
<g>
</g>
<g>
</g>
<g>
</g>
<g>
</g>
<g>
</g>
<g>
</g>
<g>
</g>
</svg>
