<?xml version="1.0" encoding="utf-8"?>
<!-- Generator: Adobe Illustrator 16.0.0, SVG Export Plug-In . SVG Version: 6.00 Build 0)  -->
<!DOCTYPE svg PUBLIC "-//W3C//DTD SVG 1.1//EN" "http://www.w3.org/Graphics/SVG/1.1/DTD/svg11.dtd">
<svg version="1.1" id="Layer_1" xmlns="http://www.w3.org/2000/svg" xmlns:xlink="http://www.w3.org/1999/xlink" x="0px" y="0px"
	 width="24px" height="24px" viewBox="0 0 24 24" enable-background="new 0 0 24 24" xml:space="preserve">
<g id="Shape_8">
	<g>
		<path fill="none" stroke="#FFFFFF" stroke-miterlimit="10" d="M22.223,18.188c-1.325-1.211-2.649-2.423-3.975-3.635
			c-0.287-0.263-0.577-0.524-0.871-0.792c-0.872,0.741-1.729,1.47-2.567,2.182c-2.16-2.16-4.306-4.305-6.476-6.475
			c0.622-0.619,1.256-1.25,1.894-1.885c-0.046-0.063-0.084-0.118-0.124-0.172c-1.296-1.743-2.592-3.486-3.888-5.23
			c-0.05-0.067-0.086-0.146-0.129-0.22H5.763c-0.537,0.5-1.073,1-1.612,1.498C3.61,3.958,3.059,4.443,2.531,4.954
			C2.362,5.118,2.234,5.337,2.127,5.55C1.869,6.06,1.734,6.608,1.671,7.175C1.663,7.246,1.646,7.317,1.632,7.39v0.972
			C1.693,8.719,1.738,9.08,1.817,9.434c0.352,1.563,1.074,2.96,1.972,4.27c1.539,2.244,3.421,4.169,5.539,5.866
			c1.322,1.06,2.744,1.958,4.348,2.539c1.303,0.473,2.635,0.688,4.012,0.384c0.743-0.164,1.399-0.474,1.94-1.047
			c0.833-0.884,1.711-1.725,2.571-2.582c0.051-0.051,0.112-0.09,0.169-0.134v-0.445C22.319,18.252,22.265,18.228,22.223,18.188z
			 M21.146,18.689c-0.715,0.716-1.449,1.415-2.141,2.153c-0.461,0.492-1.024,0.731-1.66,0.843c-1.293,0.229-2.523-0.033-3.72-0.506
			c-1.457-0.577-2.745-1.438-3.947-2.429c-1.93-1.592-3.67-3.366-5.11-5.419c-0.83-1.183-1.511-2.442-1.86-3.857
			C2.442,8.396,2.38,7.316,2.758,6.245c0.118-0.336,0.299-0.622,0.57-0.864c0.79-0.706,1.565-1.429,2.348-2.145
			c0.044-0.04,0.09-0.078,0.149-0.129c1.092,1.467,2.177,2.927,3.272,4.399c-0.673,0.668-1.337,1.327-1.99,1.976
			c2.558,2.559,5.096,5.097,7.645,7.646c0.858-0.729,1.727-1.468,2.605-2.215c1.316,1.203,2.624,2.399,3.946,3.608
			C21.245,18.584,21.197,18.639,21.146,18.689z"/>
	</g>
</g>
<g>
</g>
<g>
</g>
<g>
</g>
<g>
</g>
<g>
</g>
<g>
</g>
<g>
</g>
<g>
</g>
<g>
</g>
<g>
</g>
<g>
</g>
<g>
</g>
<g>
</g>
<g>
</g>
<g>
</g>
</svg>
