<?xml version="1.0" encoding="utf-8"?>
<!-- Generator: Adobe Illustrator 16.0.0, SVG Export Plug-In . SVG Version: 6.00 Build 0)  -->
<!DOCTYPE svg PUBLIC "-//W3C//DTD SVG 1.1//EN" "http://www.w3.org/Graphics/SVG/1.1/DTD/svg11.dtd">
<svg version="1.1" id="Layer_1" xmlns="http://www.w3.org/2000/svg" xmlns:xlink="http://www.w3.org/1999/xlink" x="0px" y="0px"
	 width="18px" height="18px" viewBox="0 0 18 18" enable-background="new 0 0 18 18" xml:space="preserve">
<g>
	<path fill="#A0A0A0" d="M2.822,4.674c1.086,0,1.986-0.807,2.138-1.854h12.072c0.172,0,0.309-0.137,0.309-0.308
		c0-0.172-0.137-0.309-0.309-0.309H4.96C4.809,1.157,3.908,0.35,2.822,0.35c-1.193,0-2.163,0.97-2.163,2.163
		C0.659,3.705,1.629,4.674,2.822,4.674L2.822,4.674z M2.822,0.968c0.851,0,1.545,0.692,1.545,1.544c0,0.851-0.694,1.545-1.545,1.545
		c-0.853,0-1.545-0.694-1.545-1.545C1.277,1.661,1.97,0.968,2.822,0.968L2.822,0.968z M2.822,0.968"/>
	<path fill="#A0A0A0" d="M15.18,13.325c-1.088,0-1.988,0.807-2.14,1.853H0.969c-0.171,0-0.31,0.139-0.31,0.31
		c0,0.17,0.139,0.31,0.31,0.31H13.04c0.151,1.045,1.052,1.854,2.14,1.854c1.191,0,2.161-0.97,2.161-2.163
		C17.341,14.295,16.371,13.325,15.18,13.325L15.18,13.325z M15.18,17.032c-0.853,0-1.545-0.693-1.545-1.545
		c0-0.851,0.692-1.545,1.545-1.545c0.851,0,1.545,0.694,1.545,1.545C16.725,16.339,16.03,17.032,15.18,17.032L15.18,17.032z
		 M15.18,17.032"/>
	<path fill="#A0A0A0" d="M17.032,8.691h-5.755c-0.124-1.113-1.068-1.982-2.213-1.982c-1.146,0-2.09,0.869-2.213,1.982H0.969
		c-0.171,0-0.31,0.137-0.31,0.308c0,0.172,0.139,0.31,0.31,0.31h5.902c0.178,1.052,1.092,1.854,2.193,1.854
		c1.1,0,2.014-0.802,2.191-1.854h5.776c0.172,0,0.309-0.137,0.309-0.31C17.341,8.829,17.204,8.691,17.032,8.691L17.032,8.691z
		 M9.064,10.544c-0.887,0-1.608-0.721-1.608-1.608c0-0.887,0.722-1.608,1.608-1.608s1.607,0.722,1.607,1.608
		C10.672,9.823,9.951,10.544,9.064,10.544L9.064,10.544z M9.064,10.544"/>
</g>
<g>
</g>
<g>
</g>
<g>
</g>
<g>
</g>
<g>
</g>
<g>
</g>
<g>
</g>
<g>
</g>
<g>
</g>
<g>
</g>
<g>
</g>
<g>
</g>
<g>
</g>
<g>
</g>
<g>
</g>
</svg>
