<?xml version="1.0" encoding="utf-8"?>
<!-- Generator: Adobe Illustrator 16.0.0, SVG Export Plug-In . SVG Version: 6.00 Build 0)  -->
<!DOCTYPE svg PUBLIC "-//W3C//DTD SVG 1.1//EN" "http://www.w3.org/Graphics/SVG/1.1/DTD/svg11.dtd">
<svg version="1.1" id="Layer_1" xmlns="http://www.w3.org/2000/svg" xmlns:xlink="http://www.w3.org/1999/xlink" x="0px" y="0px"
	 width="18px" height="18px" viewBox="0 0 18 18" enable-background="new 0 0 18 18" xml:space="preserve">
<g>
	<path fill="#9F9F9F" d="M16.612,7.115h-1.588c-0.256,0-0.467-0.141-0.563-0.376c-0.098-0.236-0.048-0.485,0.132-0.665l1.122-1.123
		c0.165-0.164,0.255-0.384,0.255-0.617c0-0.233-0.09-0.453-0.255-0.618l-1.431-1.432c-0.33-0.33-0.905-0.33-1.235,0l-1.123,1.123
		c-0.18,0.18-0.429,0.23-0.663,0.132c-0.236-0.098-0.378-0.309-0.378-0.563V1.389c0-0.482-0.391-0.873-0.871-0.873H7.988
		c-0.481,0-0.873,0.391-0.873,0.873v1.588c0,0.254-0.142,0.465-0.376,0.563C6.503,3.638,6.254,3.587,6.074,3.408L4.952,2.285
		c-0.33-0.33-0.906-0.33-1.235,0L2.285,3.716C2.121,3.881,2.03,4.102,2.03,4.334c0,0.233,0.091,0.453,0.255,0.617l1.123,1.123
		c0.18,0.179,0.229,0.428,0.132,0.665C3.443,6.974,3.231,7.115,2.978,7.115H1.389c-0.481,0-0.873,0.392-0.873,0.873v2.024
		c0,0.481,0.392,0.873,0.873,0.873h1.589c0.254,0,0.465,0.142,0.563,0.378c0.098,0.234,0.048,0.482-0.132,0.662l-1.123,1.124
		c-0.164,0.164-0.255,0.385-0.255,0.616c0,0.234,0.091,0.455,0.255,0.618l1.432,1.432c0.329,0.331,0.905,0.331,1.235,0l1.122-1.123
		c0.18-0.18,0.429-0.229,0.665-0.132c0.234,0.098,0.376,0.308,0.376,0.564v1.587c0,0.482,0.392,0.873,0.873,0.873h2.025
		c0.48,0,0.871-0.391,0.871-0.873v-1.587c0-0.257,0.142-0.467,0.376-0.564c0.236-0.098,0.485-0.048,0.665,0.132l1.123,1.123
		c0.33,0.331,0.905,0.331,1.235,0l1.431-1.432c0.165-0.163,0.255-0.384,0.255-0.618c0-0.231-0.09-0.45-0.255-0.616l-1.122-1.124
		c-0.18-0.18-0.229-0.428-0.132-0.662c0.097-0.236,0.308-0.378,0.563-0.378h1.588c0.482,0,0.872-0.392,0.872-0.873V7.988
		C17.484,7.507,17.095,7.115,16.612,7.115L16.612,7.115z M16.858,10.012c0,0.136-0.111,0.246-0.246,0.246h-1.588
		c-0.511,0-0.948,0.293-1.144,0.764c-0.197,0.472-0.094,0.988,0.269,1.35l1.12,1.123c0.098,0.095,0.098,0.25,0,0.347l-1.428,1.429
		c-0.098,0.097-0.253,0.098-0.348,0l-1.123-1.121c-0.361-0.362-0.879-0.463-1.35-0.269c-0.471,0.196-0.764,0.634-0.764,1.145v1.587
		c0,0.135-0.11,0.246-0.244,0.246H7.988c-0.135,0-0.245-0.111-0.245-0.246v-1.587c0-0.511-0.292-0.948-0.765-1.145
		c-0.158-0.066-0.32-0.099-0.481-0.099c-0.317,0-0.628,0.126-0.867,0.366L4.508,15.27c-0.097,0.098-0.251,0.097-0.348,0l-1.43-1.429
		c-0.096-0.097-0.096-0.252,0-0.35l1.123-1.12c0.36-0.361,0.463-0.878,0.267-1.35c-0.194-0.471-0.632-0.764-1.143-0.764H1.389
		c-0.135,0-0.243-0.11-0.243-0.246V7.988c0-0.134,0.108-0.245,0.243-0.245h1.589c0.511,0,0.948-0.292,1.143-0.764
		C4.316,6.507,4.214,5.99,3.854,5.63L2.73,4.508c-0.096-0.097-0.096-0.251,0-0.348l1.43-1.43c0.097-0.095,0.251-0.095,0.348,0
		L5.63,3.851C5.99,4.212,6.508,4.317,6.979,4.12c0.473-0.195,0.765-0.632,0.765-1.143V1.389c0-0.135,0.11-0.244,0.245-0.244h2.025
		c0.134,0,0.244,0.108,0.244,0.244v1.588c0,0.511,0.293,0.948,0.764,1.143c0.471,0.197,0.988,0.093,1.35-0.267l1.123-1.123
		c0.095-0.095,0.252-0.095,0.348,0l1.428,1.431c0.098,0.095,0.098,0.252,0,0.347l-1.12,1.122c-0.361,0.36-0.466,0.877-0.269,1.35
		c0.195,0.471,0.633,0.765,1.144,0.765h1.588c0.135-0.002,0.246,0.109,0.246,0.243V10.012z M16.858,10.012"/>
	<path fill="#9F9F9F" d="M9.001,6.171c-1.561,0-2.83,1.27-2.83,2.83s1.27,2.829,2.83,2.829c1.56,0,2.828-1.269,2.828-2.829
		S10.561,6.171,9.001,6.171L9.001,6.171z M9.001,11.199c-1.214,0-2.2-0.986-2.2-2.199c0-1.213,0.986-2.2,2.2-2.2
		c1.212,0,2.199,0.986,2.199,2.2C11.2,10.213,10.213,11.199,9.001,11.199L9.001,11.199z M9.001,11.199"/>
</g>
<g>
</g>
<g>
</g>
<g>
</g>
<g>
</g>
<g>
</g>
<g>
</g>
<g>
</g>
<g>
</g>
<g>
</g>
<g>
</g>
<g>
</g>
<g>
</g>
<g>
</g>
<g>
</g>
<g>
</g>
</svg>
